<?xml version="1.0" standalone="no"?>
<!DOCTYPE svg PUBLIC "-//W3C//DTD SVG 20010904//EN"
 "http://www.w3.org/TR/2001/REC-SVG-20010904/DTD/svg10.dtd">
<svg version="1.0" xmlns="http://www.w3.org/2000/svg"
 width="640.000000pt" height="640.000000pt" viewBox="0 0 640.000000 640.000000"
 preserveAspectRatio="xMidYMid meet">
<metadata>
Created by potrace 1.16, written by Peter Selinger 2001-2019
</metadata>
<g transform="translate(0.000000,640.000000) scale(0.100000,-0.100000)"
fill="#000000" stroke="none">
<path d="M0 3200 l0 -3200 3200 0 3200 0 0 3200 0 3200 -3200 0 -3200 0 0
-3200z m3360 348 l105 -34 3 -107 c1 -59 0 -107 -3 -107 -3 0 -29 19 -58 42
-81 64 -149 91 -242 96 -71 3 -84 1 -114 -20 -60 -40 -59 -103 1 -134 18 -9
89 -32 159 -50 241 -62 319 -129 319 -276 0 -108 -66 -205 -176 -259 -56 -28
-78 -33 -162 -37 -114 -5 -206 11 -330 58 l-83 32 3 106 c2 62 7 107 13 109 6
2 35 -18 65 -44 30 -25 89 -62 130 -82 67 -31 84 -35 160 -35 73 -1 89 2 117
22 53 38 57 104 8 136 -14 10 -86 32 -159 51 -191 48 -269 94 -308 183 -42 94
-12 233 64 297 39 33 116 72 165 85 74 18 210 5 323 -32z m912 31 c148 -31
274 -128 337 -258 35 -74 36 -79 36 -197 0 -118 0 -121 -37 -195 -87 -176
-247 -269 -463 -269 -139 0 -235 31 -336 107 -214 161 -228 501 -29 687 55 51
170 111 241 125 64 13 190 13 251 0z m993 -3 c33 -8 93 -27 133 -41 l72 -27 0
-99 c0 -54 -4 -100 -8 -103 -4 -2 -30 13 -57 34 -82 65 -150 93 -236 98 -92 5
-140 -13 -160 -60 -10 -26 -10 -35 2 -57 20 -35 63 -54 194 -85 61 -14 138
-40 172 -57 144 -70 188 -200 117 -346 -53 -109 -154 -163 -319 -170 -113 -6
-185 8 -315 58 l-80 30 0 109 c0 60 4 111 8 114 4 2 36 -19 70 -48 106 -90
224 -134 324 -123 113 14 161 97 91 159 -10 9 -80 33 -154 51 -154 40 -202 61
-265 119 -31 29 -48 55 -59 91 -19 64 -19 90 1 156 47 158 257 247 469 197z
m-3713 -448 c97 -244 175 -445 173 -448 -2 -3 -60 -3 -130 0 l-127 5 -25 70
c-13 39 -30 86 -37 105 l-13 35 -178 0 -177 0 -40 -107 -41 -107 -88 -3 c-49
-2 -89 -2 -89 0 0 2 31 78 69 170 38 92 119 292 181 445 l112 277 118 0 117 0
175 -442z m906 418 c65 -21 136 -83 153 -133 6 -19 9 -61 7 -93 -5 -73 -37
-118 -108 -153 l-51 -26 41 -12 c54 -16 125 -80 140 -125 7 -20 10 -64 8 -99
-5 -77 -39 -133 -106 -172 -77 -46 -134 -53 -422 -53 l-265 0 0 446 0 445 275
-3 c228 -4 284 -7 328 -22z"/>
<path d="M4045 3421 c-49 -22 -100 -78 -128 -140 -17 -38 -21 -66 -21 -156 -1
-94 3 -117 22 -160 47 -103 123 -154 230 -155 101 0 177 52 224 155 20 43 23
66 23 160 0 98 -3 116 -26 165 -48 102 -119 150 -224 150 -37 0 -76 -8 -100
-19z"/>
<path d="M1162 3222 c-79 -205 -86 -182 57 -182 66 0 121 3 121 7 0 13 -115
313 -120 313 -3 0 -29 -62 -58 -138z"/>
<path d="M2090 3315 l0 -115 100 0 c117 0 149 12 174 64 20 42 20 57 2 101
-22 51 -58 65 -176 65 l-100 0 0 -115z"/>
<path d="M2092 2939 l3 -124 105 1 c145 1 199 32 202 115 2 51 -10 76 -45 101
-28 20 -47 23 -150 27 l-118 3 3 -123z"/>
</g>
</svg>
