<?xml version="1.0" standalone="no"?>
<!DOCTYPE svg PUBLIC "-//W3C//DTD SVG 20010904//EN"
 "http://www.w3.org/TR/2001/REC-SVG-20010904/DTD/svg10.dtd">
<svg version="1.0" xmlns="http://www.w3.org/2000/svg"
 width="640.000000pt" height="640.000000pt" viewBox="0 0 640.000000 640.000000"
 preserveAspectRatio="xMidYMid meet">
<metadata>
Created by potrace 1.16, written by Peter Selinger 2001-2019
</metadata>
<g transform="translate(0.000000,640.000000) scale(0.100000,-0.100000)"
fill="#000000" stroke="none">
<path d="M0 3200 l0 -3200 3200 0 3200 0 0 3200 0 3200 -3200 0 -3200 0 0
-3200z m2757 616 c-3 -8 -13 -51 -22 -97 l-17 -84 -129 -66 c-71 -37 -129 -64
-129 -60 0 3 32 40 70 81 38 41 102 112 142 157 69 78 97 100 85 69z m1195
-142 c80 -28 128 -94 128 -176 0 -59 -116 -632 -136 -670 -29 -56 -93 -115
-157 -144 -55 -25 -74 -28 -167 -29 -126 0 -182 18 -234 75 -57 64 -62 103
-32 250 72 354 107 513 117 533 63 121 213 193 376 181 34 -2 81 -11 105 -20z
m-1734 -20 c88 -36 120 -98 103 -198 -25 -142 -60 -210 -128 -245 l-36 -18 31
-18 c67 -40 75 -97 37 -263 -30 -130 -107 -210 -224 -232 -29 -5 -146 -10
-258 -10 l-205 0 5 23 c3 12 50 237 103 500 l98 477 218 0 c175 0 226 -3 256
-16z m1242 11 c0 -8 -183 -301 -408 -654 -51 -78 -92 -145 -92 -147 0 -2 65
-4 145 -4 l145 0 0 -24 c0 -13 -7 -56 -16 -95 l-16 -71 -324 0 c-178 0 -324 3
-324 7 0 3 33 58 74 122 270 424 426 672 426 676 0 3 -63 5 -141 5 -129 0
-140 1 -135 18 2 9 10 44 16 77 6 33 14 68 16 78 5 16 29 17 320 17 173 0 314
-2 314 -5z m994 -62 c8 -38 29 -143 48 -235 18 -93 35 -168 38 -168 3 0 26
105 51 233 l46 232 112 3 c61 1 111 1 111 0 0 -3 -184 -912 -197 -970 l-5 -28
-102 0 -102 0 -44 228 c-24 125 -45 242 -48 260 -5 39 -22 43 -22 5 -1 -16
-22 -131 -49 -258 l-47 -230 -113 -3 c-104 -2 -112 -1 -107 15 7 22 196 963
196 974 0 5 49 9 109 9 l109 0 16 -67z m-1789 -199 c-20 -93 -50 -234 -66
-314 -17 -80 -42 -199 -55 -265 -14 -66 -28 -128 -30 -137 -5 -16 -20 -18
-125 -18 -65 0 -119 4 -119 9 0 5 16 85 36 178 19 92 53 258 76 368 22 110 44
207 48 215 10 18 264 152 268 141 1 -5 -13 -84 -33 -177z m-55 -950 c0 -22 -4
-24 -55 -24 -48 0 -55 -2 -55 -20 0 -17 7 -20 40 -20 40 0 45 -5 34 -34 -4
-11 -19 -16 -50 -16 -37 0 -44 -3 -44 -20 0 -17 7 -20 51 -20 43 0 50 -3 45
-16 -3 -9 -6 -20 -6 -25 0 -5 -38 -9 -85 -9 -47 0 -85 3 -85 7 0 18 33 180 41
200 8 23 13 24 89 22 77 -2 80 -3 80 -25z m145 -24 c19 -58 31 -63 40 -17 13
63 15 67 46 67 35 0 35 2 6 -125 -22 -98 -23 -100 -51 -100 -31 0 -37 7 -63
70 l-16 40 -15 -57 c-13 -54 -16 -58 -43 -58 -34 0 -34 0 -10 98 10 43 22 89
25 105 5 22 12 27 35 27 26 0 31 -5 46 -50z m345 25 c0 -24 -3 -25 -55 -25
-48 0 -55 -2 -55 -20 0 -17 7 -20 41 -20 36 0 40 -2 37 -22 -3 -20 -10 -23
-50 -26 -40 -3 -48 -6 -48 -23 0 -16 7 -19 50 -19 54 0 55 -1 40 -31 -9 -16
-22 -19 -90 -19 -44 0 -80 4 -80 9 0 17 40 203 46 212 3 5 41 9 85 9 78 0 79
0 79 -25z m238 13 c24 -24 8 -109 -24 -132 -12 -9 -13 -17 -5 -39 16 -42 14
-47 -20 -47 -26 0 -33 5 -46 40 -19 48 -34 47 -46 -3 -8 -32 -13 -37 -38 -37
-21 0 -29 5 -29 18 0 25 36 187 44 201 10 15 149 14 164 -1z m280 -10 c-3 -20
-10 -23 -61 -26 -64 -3 -68 -7 -82 -89 -6 -41 -6 -43 19 -43 24 0 26 4 26 39
0 41 11 51 57 51 25 0 25 -2 20 -43 -3 -24 -11 -55 -16 -70 -10 -26 -13 -27
-83 -27 -96 0 -102 5 -95 72 7 70 33 133 60 146 12 6 53 11 90 11 65 1 68 0
65 -21z m129 16 c14 -4 26 -19 34 -42 l12 -36 36 42 c29 34 43 42 69 42 17 0
32 -3 32 -6 0 -3 -27 -36 -60 -73 -45 -51 -61 -77 -66 -109 -6 -40 -8 -42 -41
-42 l-34 0 7 48 c4 35 1 61 -15 102 -31 81 -28 88 26 74z"/>
<path d="M3726 3488 c-22 -21 -31 -54 -81 -301 -30 -154 -55 -292 -55 -308 0
-55 80 -60 114 -7 15 23 126 542 126 589 0 14 -5 30 -12 37 -19 19 -65 14 -92
-10z"/>
<path d="M1955 3478 c-2 -7 -13 -56 -23 -108 l-19 -95 45 -3 c55 -4 85 21 101
83 17 68 14 113 -8 125 -27 14 -91 13 -96 -2z"/>
<path d="M1875 3088 c-8 -26 -45 -209 -45 -223 0 -20 88 -20 117 0 18 13 36
66 57 177 7 35 -22 58 -75 58 -31 0 -51 -5 -54 -12z"/>
</g>
</svg>
