<?xml version="1.0" standalone="no"?>
<!DOCTYPE svg PUBLIC "-//W3C//DTD SVG 20010904//EN"
 "http://www.w3.org/TR/2001/REC-SVG-20010904/DTD/svg10.dtd">
<svg version="1.0" xmlns="http://www.w3.org/2000/svg"
 width="640.000000pt" height="640.000000pt" viewBox="0 0 640.000000 640.000000"
 preserveAspectRatio="xMidYMid meet">
<metadata>
Created by potrace 1.16, written by Peter Selinger 2001-2019
</metadata>
<g transform="translate(0.000000,640.000000) scale(0.100000,-0.100000)"
fill="#000000" stroke="none">
<path d="M0 3200 l0 -3200 3200 0 3200 0 0 3200 0 3200 -3200 0 -3200 0 0
-3200z m1159 474 c28 -8 66 -28 84 -44 l32 -29 -39 -39 -38 -40 -46 29 c-86
54 -182 34 -239 -50 -75 -112 -7 -266 124 -278 49 -5 89 9 149 52 19 14 23 13
60 -19 l39 -34 -20 -22 c-55 -61 -173 -97 -262 -80 -74 13 -124 42 -171 95
-68 77 -88 170 -58 269 49 161 212 242 385 190z m3174 -20 c31 -15 57 -31 57
-35 0 -10 -64 -88 -73 -88 -4 -1 -21 9 -37 21 -40 29 -134 37 -178 14 -110
-57 -137 -201 -54 -290 52 -55 141 -72 216 -41 34 14 36 18 36 60 l0 45 -65 0
-65 0 0 50 0 50 120 0 120 0 1 -52 c1 -29 3 -69 5 -88 2 -19 1 -54 -2 -76 -5
-40 -8 -43 -64 -68 -227 -102 -450 2 -467 219 -10 114 41 215 136 272 63 38
82 42 181 39 59 -2 87 -9 133 -32z m-2675 -87 l3 -108 127 3 127 3 3 108 3
107 54 0 54 0 7 -46 c4 -32 0 -445 -6 -501 0 -2 -25 -3 -55 -3 l-55 0 0 110 0
110 -130 0 -130 0 0 -110 0 -110 -60 0 -60 0 0 275 0 276 58 -3 57 -3 3 -108z
m1003 43 c129 -298 199 -465 199 -472 0 -4 -26 -8 -59 -8 l-59 0 -22 60 -22
60 -130 0 -129 0 -26 -60 -26 -60 -58 0 c-33 0 -59 2 -59 4 0 2 16 39 36 82
34 75 160 362 190 432 13 33 14 33 75 30 l61 -3 29 -65z m619 -13 c37 -45 100
-125 140 -177 l75 -94 3 177 2 178 58 -3 57 -3 3 -272 2 -273 -57 0 -58 0
-118 153 c-65 83 -129 166 -142 182 l-25 30 0 -182 0 -183 -60 0 -60 0 0 275
0 275 58 0 57 0 65 -83z m1540 -192 l0 -275 -60 0 -60 0 0 275 0 275 60 0 60
0 0 -275z m760 230 c0 -44 -4 -50 -127 -191 -71 -80 -141 -161 -156 -180 l-29
-34 161 0 161 0 0 -50 0 -50 -245 0 -245 0 0 43 c0 36 6 48 31 73 18 16 88 94
157 174 l124 145 -151 9 -151 8 0 42 c0 24 3 46 7 49 3 4 109 7 235 7 l228 0
0 -45z"/>
<path d="M2526 3453 c-20 -49 -36 -91 -36 -95 0 -5 36 -8 81 -8 73 0 81 2 75
18 -23 62 -72 172 -77 172 -4 0 -23 -39 -43 -87z"/>
</g>
</svg>
