<?xml version="1.0" standalone="no"?>
<!DOCTYPE svg PUBLIC "-//W3C//DTD SVG 20010904//EN"
 "http://www.w3.org/TR/2001/REC-SVG-20010904/DTD/svg10.dtd">
<svg version="1.0" xmlns="http://www.w3.org/2000/svg"
 width="640.000000pt" height="640.000000pt" viewBox="0 0 640.000000 640.000000"
 preserveAspectRatio="xMidYMid meet">
<metadata>
Created by potrace 1.16, written by Peter Selinger 2001-2019
</metadata>
<g transform="translate(0.000000,640.000000) scale(0.100000,-0.100000)"
fill="#000000" stroke="none">
<path d="M0 3200 l0 -3200 3200 0 3200 0 0 3200 0 3200 -3200 0 -3200 0 0
-3200z m5016 760 c100 -57 179 -176 203 -305 16 -86 14 -248 -5 -324 -49 -203
-196 -368 -343 -388 -91 -12 -116 21 -62 83 48 54 108 163 135 245 58 174 59
310 2 543 -21 81 -36 149 -34 151 8 6 44 24 48 25 3 0 28 -13 56 -30z m-2827
-434 c63 -33 129 -104 151 -162 58 -156 -3 -315 -148 -386 -121 -60 -262 -40
-355 50 -66 63 -91 124 -91 217 0 131 52 217 167 275 58 30 67 31 152 28 61
-3 101 -10 124 -22z m1198 -6 c34 -17 68 -41 76 -54 15 -22 14 -25 -19 -57
-29 -28 -37 -32 -52 -21 -82 59 -126 71 -193 50 -114 -34 -171 -171 -116 -278
47 -93 166 -136 253 -92 22 11 46 28 53 36 19 22 31 20 63 -11 36 -34 35 -45
-4 -79 -89 -74 -226 -92 -330 -41 -196 96 -238 339 -84 493 63 62 115 82 217
83 65 1 84 -3 136 -29z m-1912 -8 c68 -31 108 -73 140 -145 24 -53 27 -69 23
-136 -7 -126 -59 -201 -176 -254 -41 -19 -65 -21 -197 -22 l-150 0 -3 280 c-1
154 0 286 3 293 4 11 36 13 158 10 133 -3 158 -6 202 -26z m1135 -211 c0 -209
2 -240 16 -245 9 -3 67 -6 130 -6 l115 0 -3 -47 -3 -48 -187 -3 -188 -2 0 295
0 295 60 0 60 0 0 -239z m1110 119 l0 -121 138 3 137 3 3 118 3 117 54 0 55 0
0 -295 0 -295 -55 0 -55 0 0 125 0 126 -137 -3 -138 -3 -3 -122 -3 -123 -54 0
-55 0 0 295 0 295 55 0 55 0 0 -120z m948 73 l-3 -48 -132 -3 -133 -3 0 -69 0
-70 116 0 115 0 -3 -47 -3 -48 -45 -1 c-25 0 -75 -1 -112 -2 l-68 -2 0 -75 0
-75 141 0 140 0 -3 -47 -3 -48 -197 -3 -198 -2 0 295 0 295 196 0 195 0 -3
-47z m-2242 -778 c75 -164 194 -435 194 -440 0 -3 -23 -5 -51 -5 l-50 0 -26
60 -26 60 -119 0 -119 0 -26 -60 -26 -60 -49 0 c-60 0 -64 -19 44 225 44 99
93 213 110 253 30 72 31 73 65 70 33 -3 36 -7 79 -103z m505 -70 c84 -96 156
-175 161 -175 4 0 8 76 8 169 0 185 -1 181 61 181 l29 0 0 -275 0 -275 -34 0
c-31 0 -42 9 -112 93 -43 50 -112 131 -153 179 l-76 87 -5 -177 -5 -177 -45 0
-45 0 -2 245 c-1 135 1 256 4 270 3 20 11 26 33 28 25 2 46 -18 181 -173z
m714 30 c34 -77 87 -197 118 -267 31 -70 57 -130 57 -133 0 -3 -23 -5 -51 -5
l-50 0 -26 60 -26 60 -119 0 -119 0 -26 -60 -26 -60 -48 0 c-27 0 -49 2 -49 5
0 11 223 520 233 533 6 7 24 12 40 10 28 -3 33 -12 92 -143z m492 -36 l158
-181 3 176 2 176 45 0 45 0 0 -270 0 -270 -29 0 c-30 0 -68 33 -138 120 -15
20 -68 83 -118 140 l-90 103 -5 -179 -5 -179 -45 0 -45 0 -3 260 c-1 143 0
265 3 272 2 7 18 13 34 13 27 0 49 -22 188 -181z m670 109 c18 -40 70 -158
117 -263 47 -104 86 -195 86 -202 0 -9 -16 -13 -49 -13 l-48 0 -26 60 -26 60
-119 0 -119 0 -26 -60 -26 -60 -45 0 c-25 0 -46 4 -46 10 0 5 25 67 56 137 58
133 130 300 157 366 14 32 20 37 49 37 32 0 35 -3 65 -72z m-3425 23 c28 -31
30 -39 26 -89 -5 -51 -9 -60 -46 -93 l-42 -36 41 -47 c22 -25 45 -46 50 -46 5
0 19 20 31 45 14 30 27 44 36 40 7 -3 22 -5 33 -5 27 0 24 -24 -12 -90 l-32
-57 39 -36 c21 -20 42 -37 47 -37 15 0 -26 -50 -42 -50 -9 0 -33 14 -54 31
l-38 31 -41 -28 c-54 -38 -154 -45 -208 -16 -102 56 -108 204 -10 260 34 20
36 24 15 56 -43 65 -36 137 17 181 29 25 38 27 96 23 58 -4 68 -7 94 -37z
m556 19 c39 -24 72 -75 72 -113 0 -38 -28 -95 -52 -108 -18 -10 -17 -12 14
-32 42 -29 58 -61 58 -119 0 -41 -5 -54 -35 -86 -45 -51 -87 -62 -234 -62
l-121 0 0 270 0 270 133 0 c114 0 136 -3 165 -20z"/>
<path d="M1999 3440 c-44 -13 -79 -41 -104 -84 -48 -82 -42 -175 18 -243 83
-94 224 -83 297 24 34 50 40 145 12 199 -46 89 -135 131 -223 104z"/>
<path d="M1230 3244 l0 -197 78 5 c45 3 93 12 115 23 111 53 131 233 35 322
-35 33 -72 43 -154 43 l-74 0 0 -196z"/>
<path d="M2332 2649 c-6 -13 -21 -53 -36 -88 -14 -36 -26 -68 -26 -73 0 -4 34
-8 75 -8 41 0 75 3 75 8 0 11 -62 166 -71 176 -5 5 -12 -1 -17 -15z"/>
<path d="M3510 2592 c-18 -48 -35 -93 -37 -99 -4 -10 14 -13 71 -13 42 0 76 4
76 9 0 8 -69 183 -74 188 -1 2 -17 -36 -36 -85z"/>
<path d="M4699 2577 l-37 -92 75 -3 c42 -2 77 -1 79 1 5 5 -68 187 -75 187 -3
0 -22 -42 -42 -93z"/>
<path d="M1201 2494 c-22 -29 -28 -83 -11 -114 5 -10 25 -24 45 -30 29 -10 41
-8 80 9 25 11 45 22 45 25 0 8 -125 136 -132 136 -4 0 -16 -12 -27 -26z"/>
<path d="M1750 2654 l0 -77 57 7 c31 4 63 12 71 18 45 38 28 110 -29 122 -17
3 -47 6 -65 6 l-34 0 0 -76z"/>
<path d="M1750 2436 l0 -76 65 0 c57 0 69 3 90 25 31 30 32 56 2 90 -19 23
-33 28 -90 32 l-67 6 0 -77z"/>
</g>
</svg>
