<?xml version="1.0" standalone="no"?>
<!DOCTYPE svg PUBLIC "-//W3C//DTD SVG 20010904//EN"
 "http://www.w3.org/TR/2001/REC-SVG-20010904/DTD/svg10.dtd">
<svg version="1.0" xmlns="http://www.w3.org/2000/svg"
 width="640.000000pt" height="640.000000pt" viewBox="0 0 640.000000 640.000000"
 preserveAspectRatio="xMidYMid meet">
<metadata>
Created by potrace 1.16, written by Peter Selinger 2001-2019
</metadata>
<g transform="translate(0.000000,640.000000) scale(0.100000,-0.100000)"
fill="#000000" stroke="none">
<path d="M0 3200 l0 -3200 3200 0 3200 0 0 3200 0 3200 -3200 0 -3200 0 0
-3200z m2226 401 c48 -22 81 -61 89 -105 3 -17 -7 -139 -24 -271 -28 -221 -32
-242 -58 -280 -16 -22 -48 -50 -73 -63 -41 -21 -56 -23 -166 -20 -114 3 -123
5 -156 30 -22 16 -43 46 -53 71 -16 42 -15 54 9 263 15 120 34 238 42 261 18
51 81 107 132 121 66 18 212 14 258 -7z m2334 -3 c61 -31 83 -74 74 -148 -4
-30 -10 -57 -14 -60 -5 -3 -42 -4 -84 -2 l-76 4 0 38 c0 37 -2 39 -35 46 -25
4 -43 1 -60 -10 -21 -14 -25 -24 -25 -67 l0 -50 58 -25 c194 -86 206 -99 198
-217 -7 -103 -24 -154 -61 -192 -42 -41 -99 -57 -212 -56 -104 0 -152 16 -186
62 -20 28 -34 136 -19 157 9 13 118 24 152 15 14 -4 20 -16 22 -47 l3 -41 45
-3 c25 -1 51 2 58 6 7 5 16 34 19 65 5 53 5 56 -24 71 -16 8 -54 24 -83 35
-72 27 -126 67 -141 102 -16 40 -6 187 17 235 18 38 62 76 109 92 17 6 73 11
125 11 80 1 103 -3 140 -21z m540 0 c61 -31 81 -73 73 -150 l-6 -58 -83 0 -84
0 0 39 c0 36 -3 40 -30 46 -17 4 -41 1 -57 -7 -25 -12 -28 -19 -31 -66 l-3
-53 48 -20 c205 -89 217 -102 209 -222 -7 -103 -24 -154 -61 -192 -42 -41 -98
-56 -210 -56 -142 0 -197 33 -210 126 -11 71 0 102 40 109 19 4 57 4 85 0 l50
-7 0 -37 c0 -42 11 -50 63 -50 49 0 60 13 65 73 4 53 3 56 -26 71 -17 9 -55
25 -84 36 -63 23 -117 61 -135 93 -26 46 -10 219 25 267 10 14 42 37 72 53 47
24 65 27 150 27 79 0 103 -4 140 -22z m-3450 -6 c45 -22 80 -75 80 -120 0 -51
-48 -431 -60 -473 -13 -46 -43 -85 -83 -107 -26 -14 -68 -18 -225 -22 l-192
-5 0 27 c0 15 16 154 35 310 19 156 37 311 41 346 l7 62 181 0 c152 0 187 -3
216 -18z m948 1 c5 -10 35 -90 66 -178 76 -214 72 -206 79 -175 4 14 13 95 22
180 9 85 19 163 21 173 5 14 18 17 90 17 l85 0 -6 -32 c-3 -18 -23 -183 -45
-367 -22 -184 -42 -337 -45 -340 -8 -8 -138 -1 -146 7 -4 4 -37 93 -75 197
-37 105 -70 193 -74 198 -3 4 -12 -50 -19 -120 -7 -71 -18 -164 -24 -207 l-12
-79 -80 2 c-44 1 -82 4 -84 6 -2 2 10 118 27 257 17 139 37 304 44 366 l12
112 78 0 c63 0 79 -3 86 -17z m846 3 c18 -7 43 -26 55 -42 22 -27 23 -36 18
-122 -6 -100 -25 -149 -65 -167 -28 -12 -28 -22 -1 -30 37 -12 50 -64 38 -152
-14 -107 -43 -162 -99 -190 -41 -21 -57 -23 -227 -23 -152 0 -183 2 -183 14 0
8 13 122 29 253 16 131 35 285 41 343 6 58 13 111 15 118 6 18 334 17 379 -2z
m569 -319 c21 -182 41 -349 44 -369 l6 -38 -90 0 -90 0 -5 70 c-3 39 -7 72 -9
74 -2 2 -37 0 -78 -3 l-75 -6 -20 -65 -21 -65 -87 -3 c-49 -1 -88 -1 -88 2 0
3 24 74 54 158 139 391 166 467 186 521 l21 57 107 0 107 0 38 -333z"/>
<path d="M2043 3473 c-12 -2 -26 -10 -32 -16 -5 -7 -19 -91 -31 -187 -11 -96
-23 -189 -25 -207 -7 -40 15 -63 60 -63 66 0 72 13 99 238 25 200 25 231 2
233 -6 0 -20 2 -31 3 -11 2 -30 1 -42 -1z"/>
<path d="M1416 3448 c-3 -13 -15 -106 -26 -208 -12 -102 -24 -195 -27 -207 -5
-22 -3 -23 61 -23 l65 0 10 38 c5 20 19 117 31 216 16 136 18 181 9 192 -7 9
-31 14 -65 14 -48 0 -54 -3 -58 -22z"/>
<path d="M3227 3463 c-3 -5 -8 -41 -12 -80 l-7 -73 56 0 c43 0 57 4 65 18 12
23 17 114 7 130 -8 13 -102 17 -109 5z"/>
<path d="M3195 3168 c-2 -7 -8 -46 -13 -85 l-8 -73 57 0 c33 0 61 5 67 13 5 6
13 41 17 76 6 49 4 65 -6 72 -22 14 -109 11 -114 -3z"/>
<path d="M3806 3309 c-21 -68 -41 -132 -43 -141 -5 -16 2 -18 46 -18 l51 0 -1
58 c-1 31 -4 95 -7 141 l-7 84 -39 -124z"/>
</g>
</svg>
