<?xml version="1.0" standalone="no"?>
<!DOCTYPE svg PUBLIC "-//W3C//DTD SVG 20010904//EN"
 "http://www.w3.org/TR/2001/REC-SVG-20010904/DTD/svg10.dtd">
<svg version="1.0" xmlns="http://www.w3.org/2000/svg"
 width="640.000000pt" height="640.000000pt" viewBox="0 0 640.000000 640.000000"
 preserveAspectRatio="xMidYMid meet">
<metadata>
Created by potrace 1.16, written by Peter Selinger 2001-2019
</metadata>
<g transform="translate(0.000000,640.000000) scale(0.100000,-0.100000)"
fill="#000000" stroke="none">
<path d="M0 3200 l0 -3200 3200 0 3200 0 0 3200 0 3200 -3200 0 -3200 0 0
-3200z m1198 1515 c193 -422 250 -545 254 -545 2 0 2 202 0 450 l-3 449 213 3
c117 2 216 1 221 -3 4 -3 6 -399 5 -880 l-3 -874 -228 0 -228 0 -68 150 c-160
354 -354 771 -362 780 -5 5 -9 -188 -9 -463 l0 -472 -215 0 -215 0 0 880 0
880 233 2 c127 2 235 1 239 -2 4 -3 79 -162 166 -355z m1349 55 c-2 -165 -1
-300 2 -300 3 0 62 82 131 181 69 99 163 234 210 300 l85 120 258 2 c141 1
257 -1 257 -4 0 -5 -201 -297 -438 -633 l-122 -174 77 -121 c43 -67 170 -264
283 -438 113 -174 215 -333 228 -355 l23 -38 -269 0 -270 0 -206 318 c-113
174 -214 331 -226 347 l-20 30 0 -155 c-1 -130 -3 -276 -9 -502 l-1 -38 -230
0 -230 0 0 878 c0 483 2 881 4 883 2 2 108 3 235 1 l231 -3 -3 -299z m3023
120 l0 -190 -405 0 -405 0 0 -155 0 -155 385 0 385 0 -2 -182 -3 -183 -382 -3
-383 -2 0 -165 0 -165 415 0 415 0 -2 -187 -3 -188 -647 -3 -648 -2 0 880 0
880 633 3 c347 1 635 3 640 5 4 1 7 -83 7 -188z m-1490 -700 l0 -880 -230 0
-230 0 0 880 0 880 230 0 230 0 0 -880z"/>
</g>
</svg>
